<?xml version="1.0" encoding="UTF-8"?>
<svg xmlns="http://www.w3.org/2000/svg" xmlns:xlink="http://www.w3.org/1999/xlink" width="375pt" height="374.999991pt" viewBox="0 0 375 374.999991" version="1.2">
<g id="surface1">
<rect x="0" y="0" width="375" height="374.999991" style="fill:rgb(100%,100%,100%);fill-opacity:1;stroke:none;"/>
<rect x="0" y="0" width="375" height="374.999991" style="fill:rgb(100%,100%,100%);fill-opacity:1;stroke:none;"/>
<path style=" stroke:none;fill-rule:nonzero;fill:rgb(40.388489%,22.749329%,71.759033%);fill-opacity:1;" d="M 375 322.917969 C 375 351.6875 351.6875 375 322.917969 375 L 52.082031 375 C 23.324219 375 0 351.6875 0 322.917969 L 0 52.082031 C 0 23.3125 23.324219 0 52.082031 0 L 322.917969 0 C 351.6875 0 375 23.3125 375 52.082031 Z M 375 322.917969 "/>
<path style=" stroke:none;fill-rule:nonzero;fill:rgb(100%,100%,100%);fill-opacity:1;" d="M 281.5625 204.167969 C 274.792969 194.792969 265 188.332031 252.394531 184.894531 C 252.394531 184.894531 263.019531 181.042969 272.605469 166.667969 C 278.332031 157.5 281.25 146.457031 281.25 133.542969 C 281.25 111.144531 273.125 93.957031 256.875 82.1875 C 240.625 70.417969 222.292969 62.5 191.144531 62.5 L 93.75 62.5 L 93.75 312.5 L 202.394531 312.5 C 231.875 312.292969 254.0625 305.9375 269.167969 293.75 C 284.167969 281.355469 291.667969 263.019531 291.667969 238.542969 C 291.667969 225 288.332031 213.542969 281.5625 204.167969 Z M 156.25 104.167969 C 156.25 104.167969 199.6875 104.167969 200.519531 104.167969 C 216.355469 104.167969 229.167969 116.980469 229.167969 132.8125 C 229.167969 148.644531 216.355469 161.457031 200.519531 161.457031 C 199.6875 161.457031 156.25 161.457031 156.25 161.457031 Z M 208.332031 270.832031 L 156.25 270.832031 L 156.25 208.332031 L 208.332031 208.332031 C 225.625 208.332031 239.582031 222.292969 239.582031 239.582031 C 239.582031 256.875 225.625 270.832031 208.332031 270.832031 Z M 208.332031 270.832031 "/>
</g>
</svg>
