<?xml version="1.0" encoding="UTF-8"?>
<svg xmlns="http://www.w3.org/2000/svg" xmlns:xlink="http://www.w3.org/1999/xlink" width="375pt" height="374.999991pt" viewBox="0 0 375 374.999991" version="1.2">
<g id="surface1">
<rect x="0" y="0" width="375" height="374.999991" style="fill:rgb(100%,100%,100%);fill-opacity:1;stroke:none;"/>
<rect x="0" y="0" width="375" height="374.999991" style="fill:rgb(100%,100%,100%);fill-opacity:1;stroke:none;"/>
<rect x="0" y="0" width="375" height="374.999991" style="fill:rgb(100%,100%,100%);fill-opacity:1;stroke:none;"/>
<path style=" stroke:none;fill-rule:nonzero;fill:rgb(0%,0%,0%);fill-opacity:1;" d="M 187.5 3.125 C 83.953125 3.125 0 87.078125 0 190.625 C 0 278.484375 60.5 352 142.0625 372.34375 C 141.1875 369.8125 140.625 366.875 140.625 363.234375 L 140.625 331.1875 C 133.015625 331.1875 120.265625 331.1875 117.0625 331.1875 C 104.234375 331.1875 92.828125 325.671875 87.296875 315.421875 C 81.15625 304.03125 80.09375 286.609375 64.875 275.953125 C 60.359375 272.40625 63.796875 268.359375 69 268.90625 C 78.609375 271.625 86.578125 278.21875 94.078125 288 C 101.546875 297.796875 105.0625 300.015625 119.015625 300.015625 C 125.78125 300.015625 135.90625 299.625 145.4375 298.125 C 150.5625 285.109375 159.421875 273.125 170.25 267.46875 C 107.8125 261.046875 78.015625 229.984375 78.015625 187.8125 C 78.015625 169.65625 85.75 152.09375 98.890625 137.296875 C 94.578125 122.609375 89.15625 92.65625 100.546875 81.25 C 128.640625 81.25 145.625 99.46875 149.703125 104.390625 C 163.703125 99.59375 179.078125 96.875 195.234375 96.875 C 211.421875 96.875 226.859375 99.59375 240.890625 104.421875 C 244.921875 99.53125 261.921875 81.25 290.078125 81.25 C 301.515625 92.671875 296.03125 122.75 291.671875 137.40625 C 304.734375 152.171875 312.421875 169.6875 312.421875 187.8125 C 312.421875 229.953125 282.671875 261 220.328125 267.453125 C 237.484375 276.40625 250 301.5625 250 320.515625 L 250 363.234375 C 250 364.859375 249.640625 366.03125 249.453125 367.421875 C 322.515625 341.8125 375 272.4375 375 190.625 C 375 87.078125 291.046875 3.125 187.5 3.125 Z M 187.5 3.125 "/>
</g>
</svg>
