<?xml version="1.0" encoding="UTF-8"?>
<svg xmlns="http://www.w3.org/2000/svg" xmlns:xlink="http://www.w3.org/1999/xlink" width="375pt" height="374.999991pt" viewBox="0 0 375 374.999991" version="1.2">
<defs>
<clipPath id="clip1">
  <path d="M 23.183594 1 L 351.554688 1 L 351.554688 374 L 23.183594 374 Z M 23.183594 1 "/>
</clipPath>
</defs>
<g id="surface1">
<rect x="0" y="0" width="375" height="374.999991" style="fill:rgb(100%,100%,100%);fill-opacity:1;stroke:none;"/>
<rect x="0" y="0" width="375" height="374.999991" style="fill:rgb(100%,100%,100%);fill-opacity:1;stroke:none;"/>
<g clip-path="url(#clip1)" clip-rule="nonzero">
<path style=" stroke:none;fill-rule:nonzero;fill:rgb(89.408875%,30.198669%,14.898682%);fill-opacity:1;" d="M 52.992188 336.6875 L 23.089844 1.054688 L 351.644531 1.054688 L 321.71875 336.640625 L 187.15625 373.957031 Z M 52.992188 336.6875 "/>
</g>
<path style=" stroke:none;fill-rule:nonzero;fill:rgb(94.509888%,39.608765%,16.079712%);fill-opacity:1;" d="M 296.089844 315.269531 L 321.671875 28.5 L 187.367188 28.5 L 187.367188 345.441406 Z M 296.089844 315.269531 "/>
<path style=" stroke:none;fill-rule:nonzero;fill:rgb(92.158508%,92.158508%,92.158508%);fill-opacity:1;" d="M 187.226562 69.660156 L 84.222656 69.660156 L 95.320312 194.144531 L 187.367188 194.144531 L 187.367188 152.984375 L 132.941406 152.984375 L 129.179688 110.832031 L 187.367188 110.832031 L 187.367188 69.660156 Z M 187.367188 259.75 L 187.191406 259.796875 L 141.382812 247.421875 L 138.472656 214.59375 L 97.160156 214.59375 L 102.921875 279.226562 L 187.179688 302.53125 L 187.367188 302.472656 Z M 187.367188 259.75 "/>
<path style=" stroke:none;fill-rule:nonzero;fill:rgb(100%,100%,100%);fill-opacity:1;" d="M 187.226562 194.144531 L 237.878906 194.144531 L 233.222656 247.515625 L 187.34375 259.902344 L 187.34375 302.730469 L 271.671875 279.339844 L 282.96875 152.960938 L 187.367188 152.960938 Z M 289.277344 80.707031 L 290.257812 69.660156 L 187.203125 69.660156 L 187.203125 110.820312 L 286.554688 110.820312 L 287.371094 101.566406 Z M 289.277344 80.707031 "/>
</g>
</svg>
