<?xml version="1.0" encoding="UTF-8"?>
<svg xmlns="http://www.w3.org/2000/svg" xmlns:xlink="http://www.w3.org/1999/xlink" width="375pt" height="374.999991pt" viewBox="0 0 375 374.999991" version="1.2">
<defs>
<clipPath id="clip1">
  <path d="M 0.308594 0.617188 L 374.429688 0.617188 L 374.429688 374.738281 L 0.308594 374.738281 Z M 0.308594 0.617188 "/>
</clipPath>
</defs>
<g id="surface1">
<rect x="0" y="0" width="375" height="374.999991" style="fill:rgb(100%,100%,100%);fill-opacity:1;stroke:none;"/>
<rect x="0" y="0" width="375" height="374.999991" style="fill:rgb(100%,100%,100%);fill-opacity:1;stroke:none;"/>
<g clip-path="url(#clip1)" clip-rule="nonzero">
<path style=" stroke:none;fill-rule:nonzero;fill:rgb(100%,83.918762%,0%);fill-opacity:1;" d="M 0.308594 0.617188 L 374.429688 0.617188 L 374.429688 374.738281 L 0.308594 374.738281 Z M 0.308594 0.617188 "/>
</g>
<path style=" stroke:none;fill-rule:nonzero;fill:rgb(0%,0%,0.389099%);fill-opacity:1;" d="M 244.921875 280.65625 C 252.113281 292.335938 259.925781 303.53125 276.484375 303.53125 C 290.386719 303.53125 297.683594 296.621094 297.683594 287.058594 C 297.683594 275.617188 290.136719 271.554688 274.839844 264.890625 L 266.453125 261.316406 C 242.25 251.050781 226.152344 238.183594 226.152344 211.007812 C 226.152344 185.960938 245.328125 166.902344 275.289062 166.902344 C 296.621094 166.902344 311.953125 174.292969 323.007812 193.640625 L 296.882812 210.34375 C 291.136719 200.074219 284.921875 196.03125 275.289062 196.03125 C 265.457031 196.03125 259.230469 202.238281 259.230469 210.34375 C 259.230469 220.359375 265.464844 224.414062 279.859375 230.617188 L 288.246094 234.191406 C 316.773438 246.339844 332.859375 258.75 332.859375 286.644531 C 332.859375 316.695312 309.125 333.167969 277.261719 333.167969 C 246.09375 333.167969 228.398438 317.527344 218.546875 298.167969 Z M 124.515625 281.507812 C 129.773438 290.925781 137.765625 298.167969 149.261719 298.167969 C 160.253906 298.167969 166.585938 293.824219 166.585938 276.9375 L 166.585938 166.894531 L 201.222656 166.894531 L 201.222656 282.257812 C 201.222656 317.246094 180.925781 333.167969 151.285156 333.167969 C 124.507812 333.167969 105.175781 315.023438 97.300781 298.167969 Z M 124.515625 281.507812 "/>
</g>
</svg>
