<?xml version="1.0" encoding="UTF-8"?>
<svg xmlns="http://www.w3.org/2000/svg" xmlns:xlink="http://www.w3.org/1999/xlink" width="375pt" height="374.999991pt" viewBox="0 0 375 374.999991" version="1.2">
<defs>
<clipPath id="clip1">
  <path d="M 25 66 L 304 66 L 304 361.128906 L 25 361.128906 Z M 25 66 "/>
</clipPath>
<clipPath id="clip2">
  <path d="M 71 66 L 350.269531 66 L 350.269531 361.128906 L 71 361.128906 Z M 71 66 "/>
</clipPath>
<clipPath id="clip3">
  <path d="M 25 13.375 L 350.269531 13.375 L 350.269531 228 L 25 228 Z M 25 13.375 "/>
</clipPath>
</defs>
<g id="surface1">
<rect x="0" y="0" width="375" height="374.999991" style="fill:rgb(100%,100%,100%);fill-opacity:1;stroke:none;"/>
<rect x="0" y="0" width="375" height="374.999991" style="fill:rgb(100%,100%,100%);fill-opacity:1;stroke:none;"/>
<rect x="0" y="0" width="375" height="374.999991" style="fill:rgb(100%,100%,100%);fill-opacity:1;stroke:none;"/>
<g clip-path="url(#clip1)" clip-rule="nonzero">
<path style=" stroke:none;fill-rule:nonzero;fill:rgb(89.7995%,35.688782%,17.649841%);fill-opacity:1;" d="M 210.773438 66.878906 L 210.773438 120.390625 L 303.605469 173.894531 L 303.605469 120.390625 Z M 25.09375 120.390625 L 25.09375 173.894531 L 71.511719 200.644531 L 71.511719 147.144531 Z M 164.34375 147.144531 L 117.929688 173.894531 L 117.929688 334.417969 L 164.34375 361.179688 L 164.34375 254.15625 L 210.773438 280.917969 L 210.773438 227.40625 L 164.34375 200.644531 Z M 164.34375 147.144531 "/>
</g>
<g clip-path="url(#clip2)" clip-rule="nonzero">
<path style=" stroke:none;fill-rule:nonzero;fill:rgb(92.939758%,55.688477%,14.118958%);fill-opacity:1;" d="M 210.773438 66.878906 L 71.511719 147.144531 L 71.511719 200.644531 L 164.34375 147.144531 L 164.34375 200.644531 L 210.773438 173.894531 Z M 350.023438 93.636719 L 303.605469 120.390625 L 303.605469 173.894531 L 350.023438 147.144531 Z M 257.1875 200.644531 L 210.773438 227.40625 L 210.773438 280.917969 L 257.1875 254.15625 Z M 210.773438 280.917969 L 164.34375 254.15625 L 164.34375 361.179688 L 210.773438 334.417969 Z M 210.773438 280.917969 "/>
</g>
<g clip-path="url(#clip3)" clip-rule="nonzero">
<path style=" stroke:none;fill-rule:nonzero;fill:rgb(97.24884%,74.899292%,23.529053%);fill-opacity:1;" d="M 210.773438 13.375 L 25.09375 120.390625 L 71.511719 147.144531 L 210.773438 66.878906 L 303.605469 120.390625 L 350.023438 93.632812 Z M 210.773438 173.894531 L 164.34375 200.644531 L 210.773438 227.40625 L 257.1875 200.644531 Z M 210.773438 173.894531 "/>
</g>
</g>
</svg>
